<svg width="39" height="30" viewBox="0 0 39 30" fill="none" xmlns="http://www.w3.org/2000/svg">
<path d="M11.638 17.3618C11.55 16.4618 11.176 15.6273 10.5105 14.8691C9.9605 14.2255 9.6855 13.6255 9.6855 13.0636C9.6855 12.8073 9.746 12.5564 9.8615 12.3109C10.2355 11.5527 10.725 11.0891 11.3245 10.9145C11.924 10.74 12.3585 10.6582 12.6335 10.6582C13.2275 10.6582 13.794 10.8436 14.344 11.2145C14.718 11.5036 15.0645 11.8364 15.3725 12.2127C15.6805 12.5945 15.8895 12.9873 15.9885 13.4073C16.665 16.2164 17.1655 19.0473 17.4845 21.9109C17.501 22.0418 17.5065 22.1618 17.5065 22.2764C17.5065 23.1491 17.27 23.6673 16.7915 23.8255C16.4285 23.9564 16.0325 24.0164 15.598 24.0164C15.3835 24.0164 15.158 24 14.927 23.9727C14.6795 23.9455 14.4485 23.9291 14.234 23.9291C13.9315 23.9291 13.651 23.9564 13.387 24.0164C12.045 24.4036 10.7635 24.5945 9.5535 24.5945C8.3435 24.5945 7.271 24.4145 6.2205 24.06C4.07 23.3455 2.497 22.2 1.496 20.6236C0.5005 19.0473 0 17.3891 0 15.6382C0 15.0382 0.0495 14.4164 0.154 13.7673C0.66 10.92 1.7325 8.41636 3.3825 6.26182C5.027 4.10727 7.2765 2.35636 10.12 1.00909C11.605 0.338182 13.0735 0 14.5145 0H14.6905C16.2085 0.0272727 17.4185 0.310909 18.3315 0.84C19.239 1.36909 19.6955 2.02364 19.6955 2.79273C19.6955 2.89091 19.69 2.98364 19.6735 3.07091C19.514 3.85636 19.129 4.35273 18.513 4.55455C17.897 4.75636 17.1435 4.86545 16.247 4.87636C15.554 4.89273 14.8225 4.96364 14.047 5.08909C13.2715 5.21455 12.507 5.49818 11.7425 5.92909C8.481 7.92 6.5285 10.6909 5.896 14.2418C5.797 14.7709 5.742 15.2564 5.742 15.7036C5.742 16.6364 5.9675 17.3673 6.413 17.8964C7.062 18.6545 7.9915 19.1782 9.207 19.4618C9.8725 19.6364 10.4005 19.7182 10.7855 19.7182C10.945 19.7182 11.0825 19.7018 11.198 19.6745C11.561 19.56 11.748 19.3909 11.759 19.1673C11.7755 18.9436 11.781 18.7909 11.781 18.7036C11.781 18.4145 11.7425 18.0818 11.671 17.6945C11.6545 17.5964 11.6435 17.4818 11.627 17.3509L11.638 17.3618Z" fill="black"/>
<path d="M30.525 13.8382C30.6075 13.8764 30.6845 13.9091 30.767 13.9364C32.2355 14.4982 33.5445 15.1473 34.694 15.8782C35.8435 16.6145 36.8445 17.76 37.6915 19.3255C38.2305 20.3945 38.5 21.3764 38.5 22.2709C38.5 22.7945 38.412 23.28 38.236 23.7327C37.763 24.9873 36.8775 26.0455 35.5795 26.9073C34.2815 27.7691 32.8295 28.4455 31.2235 28.9418C29.623 29.4382 28.303 29.7382 27.2635 29.8418C26.224 29.9509 25.4595 30 24.959 30C24.409 30 23.947 29.9618 23.584 29.88C22.385 29.6018 21.5655 29.2091 21.12 28.7073C20.6745 28.2055 20.405 27.36 20.3115 26.1709L18.9365 10.8055C18.909 10.5655 18.898 10.3364 18.898 10.1236C18.898 9.52364 18.997 9.04364 19.2005 8.68364C19.481 8.18727 20.0475 7.77273 20.9 7.44C22.1925 6.90546 23.551 6.63818 24.981 6.63818C25.223 6.63818 25.465 6.64364 25.707 6.66C27.4065 6.75273 28.699 7.22182 29.5845 8.06182C30.47 8.90182 30.9155 9.93273 30.9155 11.1491C30.9155 11.6727 30.8495 12.24 30.712 12.8509C30.657 13.0909 30.613 13.3255 30.569 13.5545C30.5415 13.6473 30.5195 13.74 30.5085 13.8327L30.525 13.8382ZM23.716 11.1327C23.8095 11.8527 23.914 12.6709 24.0185 13.5764C25.4705 12.6436 26.2185 12.0818 26.2515 11.9018C26.2845 11.7218 26.301 11.6236 26.301 11.6127C26.301 11.3073 25.4375 11.1436 23.716 11.1327V11.1327ZM24.7665 25.6582C27.984 24.9109 30.2225 24.1473 31.482 23.3618C32.7415 22.5764 33.3685 21.84 33.3685 21.1473V21.0273C33.275 20.2909 32.736 19.68 31.7515 19.1836C30.767 18.6873 29.8705 18.4091 29.0565 18.3436C28.2425 18.2782 27.698 18.2455 27.4285 18.2455C26.378 18.2455 25.355 18.42 24.3595 18.7691C24.4255 19.8655 24.4915 20.9891 24.563 22.1345C24.629 23.2582 24.695 24.4309 24.7665 25.6582Z" fill="black"/>
</svg>
